<svg width="98" height="31" viewBox="0 0 98 31" fill="none" xmlns="http://www.w3.org/2000/svg">
<path d="M29.2955 8.36364L32.5341 17.8409H32.6648L35.9034 8.36364H37.8011L33.6136 20H31.5852L27.3977 8.36364H29.2955ZM42.1463 20.1761C41.3281 20.1761 40.6141 19.9886 40.0043 19.6136C39.3944 19.2386 38.9209 18.714 38.5838 18.0398C38.2467 17.3655 38.0781 16.5777 38.0781 15.6761C38.0781 14.7708 38.2467 13.9792 38.5838 13.3011C38.9209 12.6231 39.3944 12.0966 40.0043 11.7216C40.6141 11.3466 41.3281 11.1591 42.1463 11.1591C42.9645 11.1591 43.6785 11.3466 44.2884 11.7216C44.8982 12.0966 45.3717 12.6231 45.7088 13.3011C46.0459 13.9792 46.2145 14.7708 46.2145 15.6761C46.2145 16.5777 46.0459 17.3655 45.7088 18.0398C45.3717 18.714 44.8982 19.2386 44.2884 19.6136C43.6785 19.9886 42.9645 20.1761 42.1463 20.1761ZM42.152 18.75C42.6823 18.75 43.1217 18.6098 43.4702 18.3295C43.8187 18.0492 44.0762 17.6761 44.2429 17.2102C44.4134 16.7443 44.4986 16.2311 44.4986 15.6705C44.4986 15.1136 44.4134 14.6023 44.2429 14.1364C44.0762 13.6667 43.8187 13.2898 43.4702 13.0057C43.1217 12.7216 42.6823 12.5795 42.152 12.5795C41.6179 12.5795 41.1747 12.7216 40.8224 13.0057C40.474 13.2898 40.2145 13.6667 40.044 14.1364C39.8774 14.6023 39.794 15.1136 39.794 15.6705C39.794 16.2311 39.8774 16.7443 40.044 17.2102C40.2145 17.6761 40.474 18.0492 40.8224 18.3295C41.1747 18.6098 41.6179 18.75 42.152 18.75ZM49.8097 8.36364V20H48.1108V8.36364H49.8097ZM56.169 11.2727V12.6364H51.402V11.2727H56.169ZM52.6804 9.18182H54.3793V17.4375C54.3793 17.767 54.4285 18.0152 54.527 18.1818C54.6255 18.3447 54.7524 18.4564 54.9077 18.517C55.0668 18.5739 55.2391 18.6023 55.4247 18.6023C55.5611 18.6023 55.6804 18.5928 55.7827 18.5739C55.8849 18.5549 55.9645 18.5398 56.0213 18.5284L56.3281 19.9318C56.2296 19.9697 56.0895 20.0076 55.9077 20.0455C55.7259 20.0871 55.4986 20.1098 55.2259 20.1136C54.7789 20.1212 54.3622 20.0417 53.9759 19.875C53.5895 19.7083 53.277 19.4508 53.0384 19.1023C52.7997 18.7538 52.6804 18.3163 52.6804 17.7898V9.18182ZM60.5881 20.1932C60.035 20.1932 59.535 20.0909 59.0881 19.8864C58.6411 19.678 58.2869 19.3769 58.0256 18.983C57.768 18.589 57.6392 18.1061 57.6392 17.5341C57.6392 17.0417 57.7339 16.6364 57.9233 16.3182C58.1127 16 58.3684 15.7481 58.6903 15.5625C59.0123 15.3769 59.3722 15.2367 59.7699 15.142C60.1676 15.0473 60.5729 14.9754 60.9858 14.9261C61.5085 14.8655 61.9328 14.8163 62.2585 14.7784C62.5843 14.7367 62.821 14.6705 62.9688 14.5795C63.1165 14.4886 63.1903 14.3409 63.1903 14.1364V14.0966C63.1903 13.6004 63.0502 13.2159 62.7699 12.9432C62.4934 12.6705 62.0805 12.5341 61.5312 12.5341C60.9593 12.5341 60.5085 12.661 60.179 12.9148C59.8532 13.1648 59.6278 13.4432 59.5028 13.75L57.9062 13.3864C58.0956 12.8561 58.3722 12.428 58.7358 12.1023C59.1032 11.7727 59.5256 11.5341 60.0028 11.3864C60.4801 11.2348 60.982 11.1591 61.5085 11.1591C61.857 11.1591 62.2263 11.2008 62.6165 11.2841C63.0104 11.3636 63.3778 11.5114 63.7188 11.7273C64.0634 11.9432 64.3456 12.2519 64.5653 12.6534C64.785 13.0511 64.8949 13.5682 64.8949 14.2045V20H63.2358V18.8068H63.1676C63.0578 19.0265 62.893 19.2424 62.6733 19.4545C62.4536 19.6667 62.1714 19.8428 61.8267 19.983C61.482 20.1231 61.0691 20.1932 60.5881 20.1932ZM60.9574 18.8295C61.4271 18.8295 61.8286 18.7367 62.1619 18.5511C62.4991 18.3655 62.7547 18.1231 62.929 17.8239C63.107 17.5208 63.196 17.197 63.196 16.8523V15.7273C63.1354 15.7879 63.018 15.8447 62.8438 15.8977C62.6733 15.947 62.4782 15.9905 62.2585 16.0284C62.0388 16.0625 61.8248 16.0947 61.6165 16.125C61.4081 16.1515 61.2339 16.1742 61.0938 16.1932C60.7642 16.2348 60.4631 16.3049 60.1903 16.4034C59.9214 16.5019 59.7055 16.6439 59.5426 16.8295C59.3835 17.0114 59.304 17.2538 59.304 17.5568C59.304 17.9773 59.4593 18.2955 59.7699 18.5114C60.0805 18.7235 60.4763 18.8295 60.9574 18.8295ZM67.1577 20V11.2727H68.7997V12.6591H68.8906C69.0497 12.1894 69.33 11.8201 69.7315 11.5511C70.1368 11.2784 70.5952 11.142 71.1065 11.142C71.2126 11.142 71.3376 11.1458 71.4815 11.1534C71.6293 11.161 71.7448 11.1705 71.8281 11.1818V12.8068C71.7599 12.7879 71.6387 12.767 71.4645 12.7443C71.2902 12.7178 71.116 12.7045 70.9418 12.7045C70.5402 12.7045 70.1823 12.7898 69.8679 12.9602C69.5573 13.1269 69.3111 13.3598 69.1293 13.6591C68.9474 13.9545 68.8565 14.2917 68.8565 14.6705V20H67.1577Z" fill="#052E16"/>
<path d="M14.3554 19.626L10.2679 15.177M10.2679 15.177L14.5124 10.8774M10.2679 15.177L20.2663 15.3564" stroke="#052E16" stroke-width="2" stroke-linecap="round" stroke-linejoin="round"/>
</svg>
