<svg width="50" height="50" viewBox="0 0 30 30" fill="none" xmlns="http://www.w3.org/2000/svg">
    <g clip-path="url(#clip0_246_2138)">
    <path opacity="0.3" d="M6.25 10H23.75V7.5H6.25V10Z" fill="#638E5A"/>
    <path d="M23.75 5H22.5V2.5H20V5H10V2.5H7.5V5H6.25C4.8625 5 3.7625 6.125 3.7625 7.5L3.75 25C3.75 26.375 4.8625 27.5 6.25 27.5H23.75C25.125 27.5 26.25 26.375 26.25 25V7.5C26.25 6.125 25.125 5 23.75 5ZM23.75 25H6.25V12.5H23.75V25ZM23.75 10H6.25V7.5H23.75V10ZM15 16.25H21.25V22.5H15V16.25Z" fill="#638E5A"/>
    </g>
    <defs>
    <clipPath id="clip0_246_2138">
    <rect width="30" height="30" fill="white"/>
    </clipPath>
    </defs>
</svg>
    