<svg width="52" height="57" viewBox="0 0 52 57" fill="none" xmlns="http://www.w3.org/2000/svg">
<path d="M25 25C31.9062 25 37.5 19.4062 37.5 12.5C37.5 5.59375 31.9062 0 25 0C18.0938 0 12.5 5.59375 12.5 12.5C12.5 19.4062 18.0938 25 25 25ZM25 31.25C16.6562 31.25 0 35.4375 0 43.75V50H50V43.75C50 35.4375 33.3438 31.25 25 31.25Z" fill="#638E5A"/>
<g clip-path="url(#clip0_51_149)">
<path d="M36 45C38.2091 45 40 43.2091 40 41C40 38.7908 38.2091 37 36 37C33.7909 37 32 38.7908 32 41C32 43.2091 33.7909 45 36 45Z" stroke="#052E16" stroke-width="3" stroke-linecap="round" stroke-linejoin="round"/>
<path d="M45.8667 45C45.6892 45.4021 45.6362 45.8482 45.7147 46.2808C45.7931 46.7133 45.9993 47.1124 46.3067 47.4266L46.3867 47.5066C46.6346 47.7543 46.8313 48.0484 46.9655 48.3721C47.0997 48.6959 47.1688 49.0429 47.1688 49.3933C47.1688 49.7438 47.0997 50.0908 46.9655 50.4145C46.8313 50.7382 46.6346 51.0323 46.3867 51.28C46.139 51.5279 45.8449 51.7246 45.5212 51.8588C45.1974 51.993 44.8504 52.0621 44.5 52.0621C44.1496 52.0621 43.8025 51.993 43.4788 51.8588C43.1551 51.7246 42.861 51.5279 42.6133 51.28L42.5333 51.2C42.2191 50.8926 41.82 50.6864 41.3874 50.608C40.9549 50.5295 40.5088 50.5825 40.1067 50.76C39.7123 50.929 39.376 51.2096 39.1391 51.5674C38.9022 51.9251 38.775 52.3443 38.7733 52.7733V53C38.7733 53.7072 38.4924 54.3855 37.9923 54.8856C37.4922 55.3857 36.8139 55.6666 36.1067 55.6666C35.3994 55.6666 34.7211 55.3857 34.221 54.8856C33.7209 54.3855 33.44 53.7072 33.44 53V52.88C33.4297 52.4387 33.2868 52.0106 33.03 51.6516C32.7732 51.2925 32.4143 51.019 32 50.8666C31.5978 50.6892 31.1517 50.6362 30.7192 50.7146C30.2867 50.7931 29.8876 50.9993 29.5733 51.3066L29.4933 51.3866C29.2457 51.6346 28.9516 51.8313 28.6278 51.9655C28.3041 52.0997 27.9571 52.1687 27.6067 52.1687C27.2562 52.1687 26.9092 52.0997 26.5855 51.9655C26.2618 51.8313 25.9677 51.6346 25.72 51.3866C25.4721 51.139 25.2754 50.8449 25.1412 50.5212C25.007 50.1974 24.9379 49.8504 24.9379 49.5C24.9379 49.1495 25.007 48.8025 25.1412 48.4788C25.2754 48.1551 25.4721 47.861 25.72 47.6133L25.8 47.5333C26.1074 47.2191 26.3136 46.82 26.392 46.3874C26.4704 45.9549 26.4175 45.5088 26.24 45.1066C26.071 44.7123 25.7903 44.376 25.4326 44.1391C25.0749 43.9022 24.6557 43.775 24.2267 43.7733H24C23.2928 43.7733 22.6145 43.4924 22.1144 42.9923C21.6143 42.4922 21.3333 41.8139 21.3333 41.1066C21.3333 40.3994 21.6143 39.7211 22.1144 39.221C22.6145 38.7209 23.2928 38.44 24 38.44H24.12C24.5613 38.4297 24.9893 38.2868 25.3484 38.03C25.7075 37.7732 25.9809 37.4143 26.1333 37C26.3108 36.5978 26.3638 36.1517 26.2853 35.7192C26.2069 35.2867 26.0007 34.8876 25.6933 34.5733L25.6133 34.4933C25.3654 34.2457 25.1687 33.9515 25.0345 33.6278C24.9003 33.3041 24.8312 32.9571 24.8312 32.6066C24.8312 32.2562 24.9003 31.9092 25.0345 31.5855C25.1687 31.2617 25.3654 30.9676 25.6133 30.72C25.861 30.472 26.1551 30.2754 26.4788 30.1412C26.8025 30.007 27.1496 29.9379 27.5 29.9379C27.8504 29.9379 28.1974 30.007 28.5212 30.1412C28.8449 30.2754 29.139 30.472 29.3867 30.72L29.4667 30.8C29.7809 31.1074 30.18 31.3136 30.6125 31.392C31.0451 31.4704 31.4912 31.4175 31.8933 31.24H32C32.3944 31.071 32.7307 30.7903 32.9676 30.4326C33.2045 30.0749 33.3316 29.6557 33.3333 29.2266V29C33.3333 28.2927 33.6143 27.6145 34.1144 27.1144C34.6145 26.6143 35.2928 26.3333 36 26.3333C36.7072 26.3333 37.3855 26.6143 37.8856 27.1144C38.3857 27.6145 38.6667 28.2927 38.6667 29V29.12C38.6684 29.549 38.7955 29.9682 39.0324 30.3259C39.2693 30.6837 39.6056 30.9643 40 31.1333C40.4022 31.3108 40.8483 31.3637 41.2808 31.2853C41.7133 31.2069 42.1124 31.0007 42.4267 30.6933L42.5067 30.6133C42.7543 30.3654 43.0484 30.1687 43.3722 30.0345C43.6959 29.9003 44.0429 29.8312 44.3933 29.8312C44.7438 29.8312 45.0908 29.9003 45.4145 30.0345C45.7382 30.1687 46.0323 30.3654 46.28 30.6133C46.5279 30.861 46.7246 31.1551 46.8588 31.4788C46.993 31.8025 47.0621 32.1495 47.0621 32.5C47.0621 32.8504 46.993 33.1974 46.8588 33.5212C46.7246 33.8449 46.5279 34.139 46.28 34.3866L46.2 34.4666C45.8926 34.7809 45.6864 35.18 45.608 35.6125C45.5296 36.0451 45.5825 36.4912 45.76 36.8933V37C45.929 37.3943 46.2097 37.7307 46.5674 37.9676C46.9251 38.2045 47.3443 38.3316 47.7733 38.3333H48C48.7072 38.3333 49.3855 38.6143 49.8856 39.1144C50.3857 39.6145 50.6667 40.2927 50.6667 41C50.6667 41.7072 50.3857 42.3855 49.8856 42.8856C49.3855 43.3857 48.7072 43.6666 48 43.6666H47.88C47.4509 43.6684 47.0318 43.7955 46.674 44.0324C46.3163 44.2693 46.0357 44.6056 45.8667 45Z" stroke="#052E16" stroke-width="3" stroke-linecap="round" stroke-linejoin="round"/>
</g>
<defs>
<clipPath id="clip0_51_149">
<rect width="32" height="32" fill="white" transform="translate(20 25)"/>
</clipPath>
</defs>
</svg>
