<svg width="94" height="58" viewBox="0 0 94 58" fill="none" xmlns="http://www.w3.org/2000/svg">
<path d="M48 25C54.9062 25 60.5 19.4062 60.5 12.5C60.5 5.59375 54.9062 0 48 0C41.0938 0 35.5 5.59375 35.5 12.5C35.5 19.4062 41.0938 25 48 25ZM48 31.25C39.6562 31.25 23 35.4375 23 43.75V50H73V43.75C73 35.4375 56.3438 31.25 48 31.25Z" fill="#638E5A"/>
<g clip-path="url(#clip0_51_149)">
<path d="M68.9997 32.9999C73.6038 32.9999 77.333 29.2708 77.333 24.6666C77.333 20.0624 73.6038 16.3333 68.9997 16.3333C64.3955 16.3333 60.6663 20.0624 60.6663 24.6666C60.6663 29.2708 64.3955 32.9999 68.9997 32.9999ZM68.9997 37.1666C63.4372 37.1666 52.333 39.9583 52.333 45.4999V49.6666H85.6663V45.4999C85.6663 39.9583 74.5622 37.1666 68.9997 37.1666Z" fill="#052E16"/>
</g>
<g clip-path="url(#clip1_51_149)">
<path d="M24.9997 32.9999C29.6038 32.9999 33.333 29.2708 33.333 24.6666C33.333 20.0624 29.6038 16.3333 24.9997 16.3333C20.3955 16.3333 16.6663 20.0624 16.6663 24.6666C16.6663 29.2708 20.3955 32.9999 24.9997 32.9999ZM24.9997 37.1666C19.4372 37.1666 8.33301 39.9583 8.33301 45.4999V49.6666H41.6663V45.4999C41.6663 39.9583 30.5622 37.1666 24.9997 37.1666Z" fill="#67B263"/>
</g>
<defs>
<clipPath id="clip0_51_149">
<rect width="50" height="50" fill="white" transform="translate(44 8)"/>
</clipPath>
<clipPath id="clip1_51_149">
<rect width="50" height="50" fill="white" transform="translate(0 8)"/>
</clipPath>
</defs>
</svg>
