<svg width="25" height="25" viewBox="0 0 25 25" fill="none" xmlns="http://www.w3.org/2000/svg">
<g clip-path="url(#clip0_591_9348)">
<path d="M16.7115 14.584H8.28854C6.91959 14.5856 5.60719 15.1302 4.63919 16.0982C3.6712 17.0662 3.12665 18.3786 3.125 19.7475V25.0007H21.875V19.7475C21.8733 18.3786 21.3288 17.0662 20.3608 16.0982C19.3928 15.1302 18.0804 14.5856 16.7115 14.584V14.584Z" fill="#638E5A"/>
<path d="M12.5 12.5C15.9518 12.5 18.75 9.70178 18.75 6.25C18.75 2.79822 15.9518 0 12.5 0C9.04822 0 6.25 2.79822 6.25 6.25C6.25 9.70178 9.04822 12.5 12.5 12.5Z" fill="#638E5A"/>
</g>
<defs>
<clipPath id="clip0_591_9348">
<rect width="25" height="25" fill="white"/>
</clipPath>
</defs>
</svg>
