<svg width="26" height="30" viewBox="0 0 30 34" fill="none" xmlns="http://www.w3.org/2000/svg">
<g clip-path="url(#clip0_669_9451)">
<path d="M20.7375 12.5971H18.75V5.59887C18.75 4.82906 18.1875 4.19922 17.5 4.19922H12.5C11.8125 4.19922 11.25 4.82906 11.25 5.59887V12.5971H9.2625C8.15 12.5971 7.5875 14.1087 8.375 14.9905L14.1125 21.4149C14.6 21.9607 15.3875 21.9607 15.875 21.4149L21.6125 14.9905C22.4 14.1087 21.85 12.5971 20.7375 12.5971ZM6.25 26.5936C6.25 27.3634 6.8125 27.9932 7.5 27.9932H22.5C23.1875 27.9932 23.75 27.3634 23.75 26.5936C23.75 25.8238 23.1875 25.1939 22.5 25.1939H7.5C6.8125 25.1939 6.25 25.8238 6.25 26.5936Z" fill="#638E5A"/>
</g>
<defs>
<clipPath id="clip0_669_9451">
<rect width="30" height="33.5915" fill="white"/>
</clipPath>
</defs>
</svg>
