<svg width="55" height="55" viewBox="0 0 55 55" fill="none" xmlns="http://www.w3.org/2000/svg">
<mask id="mask0_549_7776" style="mask-type:alpha" maskUnits="userSpaceOnUse" x="0" y="0" width="55" height="55">
<rect width="55" height="55" fill="#D9D9D9"/>
</mask>
<g mask="url(#mask0_549_7776)">
<path d="M27.5 50.4166C26.2395 50.4166 25.1606 49.9678 24.263 49.0702C23.3654 48.1727 22.9166 47.0937 22.9166 45.8332H32.0833C32.0833 47.0937 31.6345 48.1727 30.7369 49.0702C29.8394 49.9678 28.7604 50.4166 27.5 50.4166ZM9.16663 43.5416V38.9582H13.75V22.9166C13.75 19.7464 14.7048 16.9296 16.6145 14.4661C18.5243 12.0025 21.0069 10.3888 24.0625 9.62492V8.02075C24.0625 7.06589 24.3967 6.25426 25.0651 5.58586C25.7335 4.91745 26.5451 4.58325 27.5 4.58325C28.4548 4.58325 29.2665 4.91745 29.9349 5.58586C30.6033 6.25426 30.9375 7.06589 30.9375 8.02075V8.76554C30.5173 9.60582 30.2118 10.4652 30.0208 11.3437C29.8298 12.2221 29.7534 13.1197 29.7916 14.0364C29.4097 13.96 29.0373 13.8931 28.6744 13.8359C28.3116 13.7786 27.9201 13.7499 27.5 13.7499C24.9791 13.7499 22.8211 14.6475 21.026 16.4426C19.2309 18.2378 18.3333 20.3958 18.3333 22.9166V38.9582H36.6666V24.2343C37.3541 24.5398 38.0894 24.7786 38.8724 24.9504C39.6553 25.1223 40.4479 25.2083 41.25 25.2083V38.9582H45.8333V43.5416H9.16663ZM41.25 20.6249C39.3402 20.6249 37.717 19.9565 36.3802 18.6197C35.0434 17.2829 34.375 15.6596 34.375 13.7499C34.375 11.8402 35.0434 10.2169 36.3802 8.88013C37.717 7.54332 39.3402 6.87492 41.25 6.87492C43.1597 6.87492 44.7829 7.54332 46.1198 8.88013C47.4566 10.2169 48.125 11.8402 48.125 13.7499C48.125 15.6596 47.4566 17.2829 46.1198 18.6197C44.7829 19.9565 43.1597 20.6249 41.25 20.6249Z" fill="#638E5A"/>
</g>
</svg>
