<svg width="117" height="117" viewBox="0 0 117 117" fill="none" xmlns="http://www.w3.org/2000/svg">
<path fill-rule="evenodd" clip-rule="evenodd" d="M107.25 58.5C107.25 85.4236 85.4236 107.25 58.5 107.25C31.5761 107.25 9.75 85.4236 9.75 58.5C9.75 31.5761 31.5761 9.75 58.5 9.75C85.4236 9.75 107.25 31.5761 107.25 58.5ZM73.125 48.75C73.125 56.8274 66.5774 63.375 58.5 63.375C50.4226 63.375 43.875 56.8274 43.875 48.75C43.875 40.6729 50.4226 34.125 58.5 34.125C66.5774 34.125 73.125 40.6729 73.125 48.75ZM58.5 99.9375C67.197 99.9375 75.2685 97.2582 81.9336 92.6796C84.8777 90.6574 86.1354 86.8052 84.4243 83.6706C80.8763 77.1727 73.5647 73.125 58.4995 73.125C43.4347 73.125 36.1236 77.1722 32.5754 83.6706C30.8639 86.8052 32.1219 90.657 35.0657 92.6791C41.7309 97.2577 49.8025 99.9375 58.5 99.9375Z" fill="#67B263"/>
</svg>
