<svg width="30" height="30" viewBox="0 0 30 30" fill="none" xmlns="http://www.w3.org/2000/svg">
<path d="M6.63964 13.4519C10.2876 6.98395 12.1116 3.75 15 3.75C17.8884 3.75 19.7124 6.98395 23.3604 13.4519L23.8149 14.2579C26.8464 19.6326 28.3621 22.32 26.9921 24.285C25.6223 26.25 22.233 26.25 15.4546 26.25H14.5454C7.76695 26.25 4.37771 26.25 3.00782 24.285C1.63793 22.32 3.15364 19.6326 6.18506 14.2579L6.63964 13.4519Z" stroke="white" stroke-width="1.5"/>
<path d="M15 10V16.25" stroke="white" stroke-width="1.5" stroke-linecap="round"/>
<path d="M15 21.25C15.6904 21.25 16.25 20.6904 16.25 20C16.25 19.3096 15.6904 18.75 15 18.75C14.3096 18.75 13.75 19.3096 13.75 20C13.75 20.6904 14.3096 21.25 15 21.25Z" fill="white"/>
</svg>
